<svg xmlns="http://www.w3.org/2000/svg" width="12" height="11" viewBox="0 0 12 11">
    <path fill="#000" fill-rule="nonzero" d="M12 10.91H9.348V7.073c0-1.004-.415-1.689-1.327-1.689-.698 0-1.086.462-1.267.908-.067.16-.057.383-.057.606v4.01H4.07s.033-6.793 0-7.41h2.627V4.66c.155-.508.995-1.234 2.335-1.234C10.694 3.427 12 4.493 12 6.788v4.121zM1.413 2.57h-.017C.549 2.571 0 2.005 0 1.287 0 .555.565 0 1.429 0c.863 0 1.393.553 1.41 1.285 0 .718-.547 1.286-1.426 1.286zm-1.11.927h2.339v7.411H.302V3.5z"/>
</svg>
