<svg xmlns="http://www.w3.org/2000/svg" width="12" height="11" viewBox="0 0 12 11">
    <path fill="#000" fill-rule="evenodd" d="M12 2.093c-.44.2-.916.336-1.414.397a2.519 2.519 0 0 0 1.083-1.396c-.476.289-1.002.5-1.564.612A2.428 2.428 0 0 0 8.308.909c-1.359 0-2.461 1.13-2.461 2.524 0 .198.02.39.063.575C3.864 3.903 2.05 2.9.835 1.37a2.57 2.57 0 0 0-.333 1.27c0 .876.435 1.649 1.095 2.102a2.417 2.417 0 0 1-1.115-.315v.03c0 1.224.849 2.245 1.975 2.476a2.391 2.391 0 0 1-1.112.044c.314 1.003 1.222 1.733 2.3 1.752A4.861 4.861 0 0 1 0 9.776a6.855 6.855 0 0 0 3.774 1.133c4.529 0 7.005-3.846 7.005-7.182 0-.11-.002-.22-.007-.327.481-.357.9-.8 1.228-1.307"/>
</svg>
