<svg xmlns="http://www.w3.org/2000/svg" width="12" height="14" viewBox="0 0 12 14">
    <g fill="#000" fill-rule="evenodd">
        <path fill-rule="nonzero" d="M5.488.003A23.248 23.248 0 0 1 7.416 4.1v-.017C7.132 1.09 5.488.003 5.488.003zM7.416 4.1c.026.384.45 7.213-3.17 8.581 0 0 .332.063.708.046 0 0 4.606-2.902 2.493-8.533 0 0-.008-.034-.03-.094zM11.272.318c-.589 1.25-1.678 1.48-1.678 1.48-1.089.275-1.47.695-1.47.695-1.089 1.093-.23 2.42-.23 2.42 2.351-.534 3.21-2.465 3.21-2.465C11 3.745 8.201 5.276 8.201 5.276c.927.906 1.811.795 2.394.448.774-.46 1.146-1.468 1.146-1.468.75-2.237-.469-3.938-.469-3.938z"/>
        <path d="M8.605 8.936c0 .69-.165 1.332-.495 1.928a3.511 3.511 0 0 1-1.337 1.38 3.628 3.628 0 0 1-1.845.486 3.62 3.62 0 0 1-1.846-.486 3.53 3.53 0 0 1-1.336-1.38 3.917 3.917 0 0 1-.495-1.928c0-1.068.361-1.98 1.084-2.735.722-.752 1.586-1.13 2.593-1.13.478 0 .924.088 1.34.259.042-.438.196-.844.363-1.176a4.936 4.936 0 0 0-1.7-.284c-1.453 0-2.656.534-3.609 1.605-.864.968-1.3 2.115-1.3 3.433 0 1.331.459 2.495 1.371 3.49.916.996 2.093 1.493 3.535 1.493 1.436 0 2.613-.497 3.526-1.494.916-.996 1.37-2.16 1.37-3.49 0-.712-.124-1.374-.375-1.981-.42.258-.819.391-1.149.462.205.472.305.989.305 1.548z"/>
    </g>
</svg>
